# xmcd
# 
# Track frame offsets:
#     150
#     26460
#     47445
#     64564
#     80914
#     103703
#     122610
#     137537
#     154474
#     170138
#     189257
#     206469
#     226462
#     244387
#     262715
#     278840
#     296575
# 
# Disc length: 4175
# 
# Revision: 7
# Processed by: cddbd v1.5.2PL0 Copyright (c) Steve Scherf et al.
# Submitted via: BonkEnc v1.0
# 
DISCID=ee104d11
DTITLE=Rick and Renner - 10 anos de sucesso
DYEAR=2003
DGENRE=Sertanejo (BR)
TTITLE0=Só Pensando em Você
TTITLE1=A Força do Amor
TTITLE2=Nos Bares da Cidade
TTITLE3=Vou Ganhar Você
TTITLE4=Mil Vezes Cantarei
TTITLE5=Sem Direção
TTITLE6=Preciso Te Encontrar
TTITLE7=Fim de Semana
TTITLE8=Muleca
TTITLE9=Seguir em Frente
TTITLE10=Bandida
TTITLE11=Filha
TTITLE12=Baby
TTITLE13=Cara-de-pau
TTITLE14=Ela é Demais
TTITLE15=Instante Mágico
TTITLE16=Ela é Demais (ao vivo)
EXTD=YEAR: 2003
EXTT0=
EXTT1=
EXTT2=
EXTT3=
EXTT4=
EXTT5=
EXTT6=
EXTT7=
EXTT8=
EXTT9=
EXTT10=
EXTT11=
EXTT12=
EXTT13=
EXTT14=
EXTT15=
EXTT16=
PLAYORDER=
